PathFileType	3	(X/Y/Z)	D:\minhoCalibration\240510\subject5_KPNP\preferred\preferred08.trc
DataRate	CameraRate	NumFrames	NumMarkers	Units	OrigDataRate	OrigDataStartFrame	OrigNumFrames
200.0	200.0	24	10	mm	200.0	267	141	
Frame#	Time	Left_Ankle_Outer1			Left_Ankle_Inner1			Left_Knee_Outer1			Left_Knee_Inner1			Left_Wrist1			Right_Wrist1			Right_Knee_Inner1			Right_Knee_Outer1			Right_Ankle_Inner1			Right_Ankle_Outer1			
		X1	Y1	Z1	X2	Y2	Z2	X3	Y3	Z3	X4	Y4	Z4	X5	Y5	Z5	X6	Y6	Z6	X7	Y7	Z7	X8	Y8	Z8	X9	Y9	Z9	X10	Y10	Z10	
267	1.325	-432.07431	86.850624	-630.13995	-462.53903	104.76196	-588.68237	-241.28149	528.00171	-600.81348	-282.03638	517.61761	-516.4245	-339.43359	969.95581	-778.13666	-404.8602	1181.5457	-528.16467	-337.43103	917.76489	-68.96537	-339.10681	1013.278	-79.71595	-793.25598	844.46405	-128.82591	-787.24426	943.74225	-149.58763
268	1.33	-432.8526	86.049576	-629.67456	-463.53955	103.1123	-588.96906	-242.59221	527.68677	-600.7583	-283.0498	517.05444	-515.73767	-342.90536	968.49805	-778.16168	-401.73456	1182.3154	-527.22327	-329.5704	923.83368	-67.474808	-328.78705	1019.0135	-80.142181	-790.94434	863.03656	-95.612793	-783.32416	960.45197	-117.62737
269	1.335	-433.54446	85.155464	-629.51965	-464.07379	102.25372	-588.36847	-244.67081	527.0246	-599.93188	-284.11569	516.44202	-515.21881	-346.87646	967.06519	-777.17798	-398.94144	1183.3212	-526.24146	-322.6279	929.86365	-66.346992	-319.63385	1024.5128	-80.915512	-786.50006	880.06342	-60.53466	-778.15765	976.76306	-84.454659
270	1.34	-433.9693	84.212326	-629.48431	-464.08627	100.96464	-589.27051	-245.9613	526.61029	-599.61548	-285.1358	516.1413	-514.47418	-351.35333	965.28741	-775.14191	-396.67294	1183.6227	-525.75848	-316.58228	935.63617	-65.484993	-311.95059	1029.7135	-81.874062	-779.50208	896.95862	-21.561762	-771.672	992.59833	-50.265854
271	1.345	-434.29144	83.424103	-629.65192	-464.44299	100.19023	-589.30963	-246.92987	526.31744	-599.51373	-286.5994	515.17554	-514.06665	-353.4581	964.52753	-774.97571	-394.58267	1184.3604	-525.32825	-311.65057	941.22638	-64.894615	-305.69321	1034.6782	-83.195099	-770.77856	912.09448	16.20364	-763.40393	1007.9246	-14.711863
272	1.35	-434.49048	82.694244	-629.89673	-465.00357	99.710732	-588.7016	-248.1132	525.94202	-598.98236	-288.14188	514.55261	-513.46979	-356.50174	962.80792	-773.67133	-393.05875	1184.7585	-524.90723	-308.20862	946.49084	-64.519409	-301.16467	1039.2676	-84.591957	-759.1123	928.59143	54.131546	-753.03925	1022.7767	21.918686
273	1.355	-434.81195	82.017723	-629.93134	-465.45438	99.08934	-588.59167	-249.23973	525.46759	-598.4071	-289.27335	513.93878	-513.08356	-359.56879	961.7215	-772.27454	-391.85077	1185.2925	-524.55188	-305.84778	951.52234	-64.547356	-298.31668	1043.65	-86.031113	-744.9538	943.56555	96.894585	-740.26892	1037.1866	59.490009
274	1.36	-435.12827	81.548241	-629.87073	-465.73077	98.279121	-588.48871	-249.98315	525.2442	-597.88879	-290.55453	513.5177	-512.55444	-361.31961	961.41187	-771.65253	-391.03354	1185.6892	-524.4624	-304.97324	956.32672	-65.24585	-296.46201	1047.5038	-87.606621	-728.20721	958.62354	136.60594	-724.8761	1050.9634	97.743614
275	1.365	-435.47739	81.097855	-629.7171	-466.15155	97.65815	-588.42279	-250.91344	524.82764	-597.16949	-291.78299	513.24323	-512.0274	-363.75891	960.13959	-770.0705	-390.86502	1185.7853	-524.16162	-305.29715	960.70453	-65.892136	-296.29086	1050.8439	-89.171562	-707.37714	972.64941	176.71408	-706.65302	1064.0312	136.22787
276	1.37	-435.94528	80.699341	-629.38348	-466.3266	97.333191	-587.85425	-251.42888	524.80859	-596.70538	-292.53952	513.09265	-511.66821	-365.37943	959.39722	-769.45844	-390.95093	1185.7761	-523.88684	-307.30255	964.69867	-67.002754	-297.53116	1053.4467	-90.799339	-683.53735	984.93762	215.12192	-685.4082	1076.4087	174.40616
277	1.375	-436.4895	80.382889	-629.02539	-466.94724	96.780121	-587.27557	-252.00006	524.62683	-595.9693	-293.27609	513.16449	-511.21371	-366.61111	958.67987	-768.36853	-391.34128	1185.6705	-523.66339	-311.26642	968.4751	-68.265579	-300.62585	1056.009	-91.826851	-655.76178	997.5694	252.22757	-660.83917	1087.9218	211.57133
278	1.38	-436.84903	80.176567	-628.57855	-467.51004	96.433136	-586.771	-252.58437	524.48517	-595.39618	-293.96106	513.08356	-510.61948	-367.56061	958.48297	-768.22418	-392.16245	1185.7249	-522.68256	-317.5993	972.13147	-69.05677	-305.32532	1058.4266	-92.55851	-623.33978	1008.458	286.32529	-632.83734	1098.2776	247.07239
279	1.385	-437.34598	79.840866	-628.03149	-467.3056	96.014191	-586.97736	-253.1273	524.47272	-594.82672	-294.23514	513.02167	-510.08887	-368.95029	958.24304	-766.47363	-393.00577	1185.1464	-523.59924	-325.87985	975.51868	-69.103363	-311.84637	1061.1013	-92.840408	-589.18268	1017.334	319.32513	-601.88605	1107.4098	279.83572
280	1.39	-437.77176	79.646484	-627.58148	-467.759	96.257622	-585.09711	-253.63443	524.47888	-594.21545	-294.44366	512.93347	-509.40329	-369.16632	958.04681	-765.79742	-394.68088	1185.6288	-522.20416	-334.73288	979.17859	-68.510529	-319.62659	1064.2632	-92.79538	-550.41339	1024.0267	345.98962	-567.81927	1114.2977	308.81406
281	1.395	-438.17657	79.510483	-627.1236	-468.09552	95.798698	-584.93903	-254.22334	524.61353	-593.53052	-294.45142	512.77173	-508.66074	-369.69638	958.34039	-763.80634	-396.86435	1186.3403	-519.7489	-344.12009	983.84839	-67.165092	-328.04391	1068.2993	-92.961845	-508.33463	1027.8766	366.24081	-531.26825	1118.1023	333.14221
282	1.4	-438.55222	79.331123	-626.8717	-468.30859	95.612114	-584.375	-254.70633	524.68628	-592.87683	-294.41708	512.60284	-507.61407	-370.38049	957.96204	-761.1488	-397.81015	1186.0106	-518.95807	-353.33386	989.47272	-65.375282	-335.93478	1074.5148	-92.660805	-464.77426	1027.799	378.67422	-493.66278	1117.6768	350.9162
283	1.405	-438.90445	79.227821	-626.56281	-468.49518	95.221558	-584.08179	-255.23058	524.75037	-592.07227	-294.18039	512.34521	-506.64813	-370.20673	957.98914	-758.56146	-399.49368	1185.8438	-518.23346	-360.94662	996.06244	-63.544296	-342.98166	1081.3301	-92.049171	-434.29724	1025.4873	382.26083	-464.46677	1114.8671	358.43616
284	1.41	-439.20175	78.992691	-626.31689	-468.78116	94.857231	-583.64862	-255.95319	524.70142	-591.11414	-294.04794	512.06079	-505.39081	-369.30524	958.36377	-755.91028	-401.53275	1186.8599	-515.38416	-363.32553	1003.0486	-61.420162	-348.39352	1089.0305	-89.755112	-418.19843	1019.6771	376.78308	-454.66052	1111.9242	358.8963
285	1.415	-439.35062	78.716423	-626.15576	-468.72122	94.402809	-584.1908	-256.76791	524.64984	-589.84509	-294.06073	511.6152	-503.79501	-368.94339	957.63684	-752.42993	-403.08673	1186.528	-513.70142	-360.46713	1010.5714	-59.612324	-349.38144	1096.9307	-88.060394	-413.88263	1014.3655	379.09128	-451.5416	1104.0293	362.35852
286	1.42	-439.39804	78.585358	-626.22571	-468.72467	93.963043	-584.22284	-257.71304	524.69952	-588.15363	-294.36356	511.20526	-501.84506	-368.99261	957.05457	-748.26813	-405.39117	1186.1467	-511.30753	-355.43484	1016.4943	-57.788582	-350.14783	1102.6132	-85.744766	-412.02121	1010.2378	380.67038	-455.91068	1099.1849	363.97775
287	1.425	-439.35226	78.341431	-626.27606	-468.75809	93.704338	-584.20099	-258.69522	524.63855	-585.87103	-295.30087	510.78564	-499.47351	-367.7749	956.96851	-745.71124	-407.8439	1185.889	-508.23523	-351.30811	1020.3564	-57.302555	-352.69849	1106.4148	-84.066132	-410.8522	1007.8973	380.05432	-461.88626	1093.5238	364.93237
288	1.43	-439.31641	78.053581	-626.23102	-469.39572	93.580933	-583.05011	-259.54407	524.61053	-583.05981	-296.48682	510.37097	-496.92032	-367.16397	956.49298	-742.82587	-411.08481	1185.6383	-506.5416	-348.69998	1022.7803	-57.15292	-356.39145	1108.42	-82.601768	-412.76605	1005.6672	380.23352	-467.77161	1088.7289	366.69388
289	1.435	-439.21277	77.770973	-626.05316	-469.20526	92.838257	-584.37549	-260.49191	524.48834	-579.79199	-298.22739	510.03427	-494.10992	-366.05142	956.34644	-740.26489	-414.82761	1184.9252	-504.58282	-348.20209	1024.6659	-56.913769	-358.90958	1109.845	-81.302101	-416.1633	1002.4019	383.40726	-471.16711	1085.6002	368.96411
290	1.44	-439.16104	77.54126	-625.7865	-469.64413	92.456764	-584.21497	-261.44699	524.57947	-576.36462	-300.46869	509.66595	-491.21338	-365.04874	956.16937	-737.53485	-418.85663	1184.3237	-503.05127	-349.92148	1026.0947	-56.365673	-361.20007	1110.8328	-80.094933	-420.50604	998.90546	385.55399	-473.11554	1082.6431	370.34769
